<svg width="20" height="20" viewBox="0 0 20 20" fill="none" xmlns="http://www.w3.org/2000/svg">
<g filter="url(#filter0_d)">
<path d="M10.4405 10.4069V6.1977H14.5595C14.8027 6.1977 15 5.9961 15 5.74751C15 5.49892 14.8027 5.29733 14.5595 5.29733H10.4405V1.08812C10.4405 0.839531 10.2433 0.637939 10 0.637939C9.75674 0.637939 9.55947 0.839531 9.55947 1.08812V5.29733L5.44053 5.29733C5.19727 5.29733 5 5.49892 5 5.74751C5 5.9961 5.19727 6.1977 5.44053 6.1977L9.55947 6.1977V10.4069C9.55947 10.6555 9.75674 10.8571 10 10.8571C10.2433 10.8571 10.4405 10.6555 10.4405 10.4069" stroke="#1EA4CE" shape-rendering="crispEdges"/>
</g>
<defs>
<filter id="filter0_d" x="0.5" y="0.137939" width="19" height="19.2191" filterUnits="userSpaceOnUse" color-interpolation-filters="sRGB">
<feFlood flood-opacity="0" result="BackgroundImageFix"/>
<feColorMatrix in="SourceAlpha" type="matrix" values="0 0 0 0 0 0 0 0 0 0 0 0 0 0 0 0 0 0 127 0" result="hardAlpha"/>
<feOffset dy="4"/>
<feGaussianBlur stdDeviation="2"/>
<feComposite in2="hardAlpha" operator="out"/>
<feColorMatrix type="matrix" values="0 0 0 0 0 0 0 0 0 0 0 0 0 0 0 0 0 0 0.25 0"/>
<feBlend mode="normal" in2="BackgroundImageFix" result="effect1_dropShadow"/>
<feBlend mode="normal" in="SourceGraphic" in2="effect1_dropShadow" result="shape"/>
</filter>
</defs>
</svg>
